<svg width="27" height="21" viewBox="0 0 27 21" fill="none" xmlns="http://www.w3.org/2000/svg">
<path d="M8.86867 13.4824H8.86986L8.87283 13.4822H22.676C23.0158 13.4822 23.3146 13.2826 23.408 12.9933L26.4533 3.55576C26.5189 3.3523 26.4729 3.13356 26.3291 2.96468C26.1852 2.7958 25.9602 2.69644 25.7213 2.69644H7.11287L6.56864 0.527878C6.49112 0.219437 6.18223 0 5.82536 0H1.25742C0.836905 0 0.496094 0.30177 0.496094 0.674111C0.496094 1.04645 0.836905 1.34822 1.25742 1.34822H5.21471C5.31107 1.7325 7.81907 11.7258 7.96341 12.3008C7.1543 12.6122 6.58668 13.3265 6.58668 14.1563C6.58668 15.2714 7.6113 16.1787 8.87065 16.1787H22.676C23.0965 16.1787 23.4373 15.8769 23.4373 15.5045C23.4373 15.1322 23.0965 14.8304 22.676 14.8304H8.87065C8.45093 14.8304 8.10933 14.528 8.10933 14.1563C8.10933 13.7852 8.44974 13.4833 8.86867 13.4824ZM24.7119 4.04466L22.1016 12.134H9.4813L7.4511 4.04466H24.7119Z" fill="#FF7F00"/>
<path d="M8.10938 18.201C8.10938 19.3161 9.13399 20.2233 10.3933 20.2233C11.6527 20.2233 12.6773 19.3161 12.6773 18.201C12.6773 17.0859 11.6527 16.1786 10.3933 16.1786C9.13399 16.1786 8.10938 17.0859 8.10938 18.201ZM10.3933 17.5269C10.8131 17.5269 11.1547 17.8293 11.1547 18.201C11.1547 18.5726 10.8131 18.8751 10.3933 18.8751C9.97363 18.8751 9.63202 18.5726 9.63202 18.201C9.63202 17.8293 9.97363 17.5269 10.3933 17.5269Z" fill="#FF7F00"/>
<path d="M18.8691 18.201C18.8691 19.3161 19.8938 20.2233 21.1531 20.2233C22.4125 20.2233 23.4371 19.3161 23.4371 18.201C23.4371 17.0859 22.4125 16.1786 21.1531 16.1786C19.8938 16.1786 18.8691 17.0859 18.8691 18.201ZM21.1531 17.5269C21.5728 17.5269 21.9144 17.8293 21.9144 18.201C21.9144 18.5726 21.5728 18.8751 21.1531 18.8751C20.7334 18.8751 20.3918 18.5726 20.3918 18.201C20.3918 17.8293 20.7334 17.5269 21.1531 17.5269Z" fill="#FF7F00"/>
</svg>
