<svg width="52" height="51" viewBox="0 0 52 51" fill="none" xmlns="http://www.w3.org/2000/svg">
<path d="M26.1952 51C40.3302 51 51.7889 39.5833 51.7889 25.5C51.7889 11.4167 40.3302 0 26.1952 0C12.0602 0 0.601562 11.4167 0.601562 25.5C0.601562 39.5833 12.0602 51 26.1952 51Z" fill="#F57F20"/>
<path d="M27.6302 30.0873C27.6302 30.8722 27.4726 31.5524 27.1575 32.128C26.8424 32.721 26.4223 33.2094 25.8796 33.6105C25.3369 34.0117 24.7067 34.3082 23.9889 34.5175C23.2712 34.7268 22.5009 34.8315 21.6957 34.8315H12.7852V16.4478H22.6585C23.3062 16.4478 23.8839 16.5873 24.3916 16.8664C24.9168 17.1454 25.3544 17.4943 25.722 17.9478C26.0897 18.3838 26.3697 18.8896 26.5623 19.4478C26.7549 20.0059 26.8599 20.5815 26.8599 21.1396C26.8599 22.0291 26.6323 22.8838 26.1772 23.6687C25.722 24.4536 25.0743 25.0291 24.199 25.4129C25.2494 25.7268 26.0897 26.285 26.7024 27.0873C27.3151 27.8722 27.6302 28.8838 27.6302 30.0873ZM16.3564 19.5001V24.1396H21.1355C21.7482 24.1396 22.2558 23.9303 22.676 23.5117C23.0961 23.0931 23.3062 22.535 23.3062 21.8024C23.3062 21.0873 23.1136 20.5291 22.7285 20.128C22.3434 19.7094 21.8532 19.5001 21.293 19.5001H16.3564ZM24.024 29.4071C24.024 29.0757 23.9714 28.7617 23.8489 28.4652C23.7438 28.1687 23.5863 27.9071 23.3937 27.6803C23.2012 27.4536 22.9736 27.2791 22.711 27.1571C22.4484 27.035 22.1683 26.9652 21.8532 26.9652H16.3389V31.7966H21.6606C21.9933 31.7966 22.2909 31.7443 22.5885 31.6222C22.8686 31.5001 23.1137 31.3257 23.3237 31.1164C23.5338 30.9071 23.6913 30.6454 23.8139 30.3489C23.9539 30.0524 24.024 29.7385 24.024 29.4071Z" fill="white"/>
<path d="M35.3854 34.8138C34.335 34.8138 33.3722 34.6394 32.5144 34.2732C30.8164 33.558 29.6259 32.3545 28.9257 30.6452C28.5931 29.8255 28.4355 28.9708 28.4355 28.0639C28.4355 27.122 28.5931 26.2499 28.9082 25.4127C29.5909 23.6859 30.7813 22.465 32.4969 21.7325C33.3547 21.3662 34.335 21.1743 35.4029 21.1743C36.4708 21.1743 37.4336 21.3662 38.2914 21.7325C41.0748 22.9359 42.3878 25.6394 42.2652 28.5522C42.2652 28.7441 42.2302 28.9185 42.1952 29.058H32.0067C32.0593 29.5813 32.1818 30.0348 32.3919 30.4359C32.6019 30.8371 32.847 31.1859 33.1796 31.465C33.4947 31.7441 33.8624 31.9708 34.265 32.1104C34.6677 32.2673 35.0878 32.3371 35.5254 32.3371C36.1906 32.3371 36.8384 32.1801 37.4336 31.8487C38.0288 31.5173 38.4314 31.0987 38.659 30.558L41.5475 31.3604C41.0573 32.372 40.287 33.1918 39.2192 33.8371C38.1338 34.4999 36.8734 34.8138 35.3854 34.8138ZM38.8165 26.8952C38.729 25.9011 38.3614 25.1162 37.7137 24.5232C37.0659 23.9301 36.2782 23.6336 35.3679 23.6336C34.9127 23.6336 34.4926 23.7208 34.09 23.8778C33.6873 24.0348 33.3547 24.2615 33.0396 24.5406C32.742 24.8197 32.4969 25.1685 32.3043 25.5697C32.1118 25.9708 31.9892 26.4069 31.9717 26.8952H38.8165Z" fill="white"/>
</svg>
