<svg width="52" height="51" viewBox="0 0 52 51" fill="none" xmlns="http://www.w3.org/2000/svg">
<path d="M25.8065 51C39.9415 51 51.4002 39.5833 51.4002 25.5C51.4002 11.4167 39.9415 0 25.8065 0C11.6716 0 0.212891 11.4167 0.212891 25.5C0.212891 39.5833 11.6716 51 25.8065 51Z" fill="#F57F20"/>
<path d="M25.8059 11.1802C17.8582 11.1802 11.416 17.6162 11.416 25.4999C11.416 33.3837 17.8757 39.8197 25.8059 39.8197C33.7536 39.8197 40.2133 33.4011 40.2133 25.4999C40.1957 17.5988 33.7361 11.1802 25.8059 11.1802ZM35.2766 17.9302C36.9221 19.9534 37.92 22.5174 37.955 25.3081C37.4123 25.2034 35.1015 24.7674 32.3356 24.7674C31.4428 24.7674 30.4975 24.8197 29.5697 24.9244C29.4821 24.7325 29.4121 24.5406 29.3246 24.3488C29.0795 23.7732 28.8169 23.2151 28.5368 22.6569C32.7907 20.9127 34.8389 18.4883 35.2766 17.9302ZM25.8059 13.4127C28.8694 13.4127 31.6704 14.5465 33.8236 16.4127C33.491 16.8662 31.6529 19.1685 27.539 20.7034C25.6308 17.2499 23.5651 14.372 23.0574 13.7092C23.9327 13.5174 24.8606 13.4127 25.8059 13.4127ZM20.5716 14.5988C20.9918 15.1744 23.075 18.0697 25.0181 21.5058C19.7838 22.8837 15.1448 22.9709 14.0244 22.9709H13.9019C14.7071 19.2558 17.228 16.186 20.5716 14.5988ZM13.6393 25.5174C13.6393 25.4127 13.6393 25.3255 13.6393 25.2209C13.7093 25.2209 13.8143 25.2209 13.9544 25.2209C15.4599 25.2209 20.7117 25.0988 26.1035 23.4941C26.4361 24.1395 26.7512 24.7848 27.0313 25.4302C26.8912 25.4651 26.7687 25.4999 26.6287 25.5523C20.5541 27.5058 17.2105 32.686 16.6853 33.5406C14.7947 31.3953 13.6393 28.5872 13.6393 25.5174ZM25.8059 37.622C23.0224 37.622 20.4491 36.6802 18.3834 35.1104C18.7335 34.4302 21.2543 29.9127 27.9241 27.593C27.9241 27.593 27.9241 27.593 27.9416 27.593C29.6047 31.9185 30.3224 35.5639 30.515 36.6976C29.0445 37.2906 27.4689 37.622 25.8059 37.622ZM32.6857 35.4941C32.5282 34.5697 31.8629 31.1511 30.3574 26.9999C31.1977 26.8604 32.038 26.8081 32.8082 26.8081C35.3466 26.8081 37.3423 27.3662 37.7974 27.5058C37.2548 30.8023 35.3466 33.6627 32.6857 35.4941Z" fill="white"/>
</svg>
