<svg width="52" height="51" viewBox="0 0 52 51" fill="none" xmlns="http://www.w3.org/2000/svg">
<path d="M26.4062 51C40.5412 51 51.9998 39.5833 51.9998 25.5C51.9998 11.4167 40.5412 0 26.4062 0C12.2712 0 0.8125 11.4167 0.8125 25.5C0.8125 39.5833 12.2712 51 26.4062 51Z" fill="#F57F20"/>
<path d="M40.5507 16.7615C39.6579 17.1626 38.6776 17.4068 37.7323 17.5638C38.1874 17.494 38.8527 16.6743 39.1153 16.3429C39.5179 15.837 39.868 15.2615 40.0606 14.6336C40.0781 14.5812 40.0956 14.5289 40.0606 14.494C40.008 14.4766 39.9555 14.4766 39.903 14.5115C38.8352 15.087 37.7323 15.4882 36.5594 15.7847C36.4543 15.8022 36.3843 15.7847 36.3318 15.7324C36.2268 15.6277 36.1393 15.5231 36.0342 15.4359C35.5441 15.0173 35.0189 14.6859 34.4062 14.4417C33.6184 14.1277 32.7606 13.9882 31.9203 14.0405C31.0975 14.0929 30.2923 14.3196 29.557 14.7033C28.8218 15.087 28.174 15.6103 27.6489 16.2556C27.1062 16.9184 26.7211 17.7033 26.511 18.5231C26.3184 19.3254 26.3359 20.1103 26.4585 20.9126C26.476 21.0522 26.4585 21.0696 26.3359 21.0522C21.7319 20.3719 17.9331 18.7324 14.8345 15.2266C14.6945 15.0696 14.6245 15.0696 14.5194 15.244C13.1715 17.2673 13.8192 20.5115 15.5173 22.1161C15.7449 22.3254 15.9724 22.5347 16.2175 22.744C16.13 22.7615 15.0096 22.6394 13.9942 22.1161C13.8542 22.0289 13.7842 22.0812 13.7842 22.2382C13.7667 22.465 13.7842 22.6568 13.8192 22.901C14.0818 24.9417 15.4998 26.8429 17.4604 27.5929C17.688 27.6975 17.9506 27.7673 18.1957 27.8196C17.758 27.9243 17.2854 27.994 16.0249 27.8894C15.8674 27.8545 15.7974 27.9417 15.8674 28.0812C16.8302 30.6801 18.8959 31.4475 20.4364 31.901C20.6465 31.9359 20.8566 31.9359 21.0667 31.9882C21.0491 32.0056 21.0491 32.0056 21.0316 32.0231C20.524 32.808 18.7384 33.3836 17.9156 33.6801C16.4101 34.2033 14.7645 34.4475 13.1715 34.2905C12.9089 34.2556 12.8564 34.2556 12.7864 34.2905C12.7163 34.3254 12.7688 34.3952 12.8564 34.465C13.1715 34.6743 13.5041 34.8661 13.8367 35.0405C14.852 35.5812 15.9024 35.9998 17.0053 36.2963C22.7122 37.8661 29.1194 36.715 33.4083 32.4766C36.7695 29.1452 37.9424 24.558 37.9424 19.9708C37.9424 19.7963 38.1524 19.6917 38.275 19.6045C39.1503 18.9417 39.8505 18.1743 40.4982 17.2847C40.6383 17.0929 40.6383 16.9184 40.6383 16.8487C40.6383 16.8312 40.6383 16.8312 40.6383 16.8312C40.6558 16.6917 40.6558 16.7091 40.5507 16.7615Z" fill="white"/>
</svg>
