<svg width="15" height="15" viewBox="0 0 15 15" fill="none" xmlns="http://www.w3.org/2000/svg">
<path d="M12.8025 2.1959C9.87314 -0.732586 5.12438 -0.731882 2.1959 2.19751C-0.732586 5.1269 -0.731883 9.87562 2.19751 12.8041C5.1269 15.7326 9.87563 15.7319 12.8041 12.8025C14.2105 11.3956 15.0004 9.48767 15 7.49839C14.9996 5.50943 14.2091 3.60209 12.8025 2.1959ZM11.3585 10.4474C11.3582 10.4477 11.3578 10.4481 11.3575 10.4484V10.4459L10.9775 10.8234C10.486 11.3211 9.77028 11.5258 9.08998 11.3634C8.40458 11.1799 7.75301 10.8879 7.15999 10.4984C6.60903 10.1463 6.09844 9.73467 5.63749 9.27091C5.21336 8.84988 4.83232 8.38758 4.49998 7.89091C4.13646 7.35647 3.84874 6.77429 3.64498 6.1609C3.4114 5.44032 3.60496 4.64962 4.14499 4.11841L4.58998 3.67342C4.7137 3.54915 4.91473 3.54871 5.03898 3.67243C5.0393 3.67275 5.03966 3.67307 5.03998 3.67342L6.44497 5.07841C6.56924 5.20213 6.56968 5.40317 6.44596 5.52742C6.44564 5.52774 6.44532 5.52806 6.44497 5.52841L5.61997 6.35341C5.38325 6.58755 5.35348 6.95962 5.54998 7.22842C5.84837 7.63793 6.17857 8.02327 6.53749 8.38093C6.93765 8.78282 7.37268 9.14842 7.83748 9.47343C8.10604 9.66076 8.47014 9.62918 8.70247 9.39843L9.49996 8.58844C9.62368 8.46416 9.82471 8.46372 9.94896 8.58744C9.94928 8.58776 9.9496 8.58809 9.94995 8.58844L11.3575 9.99843C11.4818 10.1221 11.4822 10.3231 11.3585 10.4474Z" fill="white"/>
</svg>
