<svg width="28" height="25" viewBox="0 0 28 25" fill="none" xmlns="http://www.w3.org/2000/svg">
<path d="M27.086 23.0646L20.0259 16.8677C21.8747 15.076 23.0107 12.7064 23.0107 10.099C23.0098 4.5211 17.8591 0 11.5049 0C5.1507 0 0 4.5211 0 10.099C0 15.6768 5.1507 20.1979 11.5049 20.1979C14.2504 20.1979 16.7684 19.3509 18.7463 17.9427L25.8339 24.164C26.1792 24.4675 26.7399 24.4675 27.0852 24.164C27.4314 23.8606 27.4314 23.3681 27.086 23.0646ZM11.5049 18.6441C6.12856 18.6441 1.77019 14.8183 1.77019 10.099C1.77019 5.37958 6.12856 1.55378 11.5049 1.55378C16.8813 1.55378 21.2396 5.37958 21.2396 10.099C21.2396 14.8183 16.8813 18.6441 11.5049 18.6441Z" fill="black"/>
</svg>
